<mxfile host="www.draw.io" modified="2020-01-12T21:21:07.676Z" agent="Mozilla/5.0 (Macintosh; Intel Mac OS X 10_15_2) AppleWebKit/537.36 (KHTML, like Gecko) Chrome/79.0.3945.117 Safari/537.36" etag="tCN5simv_iqcfvMPGgnl" version="12.5.1" type="github">
  <diagram id="5gD-OjiCcMW-OboH49Tn" name="Page-1">
    <mxGraphModel dx="908" dy="567" grid="0" gridSize="10" guides="1" tooltips="1" connect="1" arrows="1" fold="1" page="1" pageScale="1" pageWidth="827" pageHeight="1169" math="0" shadow="0">
      <root>
        <mxCell id="0"/>
        <mxCell id="1" parent="0"/>
        <mxCell id="yNUQ4REqKbH_PLqFoBqD-3" value="" style="shape=image;html=1;verticalAlign=top;verticalLabelPosition=bottom;labelBackgroundColor=#ffffff;imageAspect=0;aspect=fixed;image=https://cdn2.iconfinder.com/data/icons/freecns-cumulus/16/519620-119_Eye-128.png" vertex="1" parent="1">
          <mxGeometry x="90" y="726" width="98" height="98" as="geometry"/>
        </mxCell>
        <mxCell id="yNUQ4REqKbH_PLqFoBqD-12" style="edgeStyle=orthogonalEdgeStyle;rounded=0;orthogonalLoop=1;jettySize=auto;html=1;exitX=0;exitY=0.75;exitDx=0;exitDy=0;entryX=1;entryY=0.5;entryDx=0;entryDy=0;" edge="1" parent="1" source="yNUQ4REqKbH_PLqFoBqD-4" target="yNUQ4REqKbH_PLqFoBqD-3">
          <mxGeometry relative="1" as="geometry"/>
        </mxCell>
        <mxCell id="yNUQ4REqKbH_PLqFoBqD-4" value="" style="shape=image;html=1;verticalAlign=top;verticalLabelPosition=bottom;labelBackgroundColor=#ffffff;imageAspect=0;aspect=fixed;image=https://cdn2.iconfinder.com/data/icons/font-awesome/1792/tree-128.png" vertex="1" parent="1">
          <mxGeometry x="627" y="679" width="128" height="128" as="geometry"/>
        </mxCell>
        <mxCell id="yNUQ4REqKbH_PLqFoBqD-5" value="" style="endArrow=none;dashed=1;html=1;" edge="1" parent="1">
          <mxGeometry width="50" height="50" relative="1" as="geometry">
            <mxPoint x="199" y="847" as="sourcePoint"/>
            <mxPoint x="367" y="685" as="targetPoint"/>
          </mxGeometry>
        </mxCell>
        <mxCell id="yNUQ4REqKbH_PLqFoBqD-6" value="" style="endArrow=none;html=1;exitX=1;exitY=0;exitDx=0;exitDy=0;" edge="1" parent="1" source="yNUQ4REqKbH_PLqFoBqD-8">
          <mxGeometry width="50" height="50" relative="1" as="geometry">
            <mxPoint x="226" y="520" as="sourcePoint"/>
            <mxPoint x="375" y="692" as="targetPoint"/>
          </mxGeometry>
        </mxCell>
        <mxCell id="yNUQ4REqKbH_PLqFoBqD-13" style="edgeStyle=orthogonalEdgeStyle;rounded=0;orthogonalLoop=1;jettySize=auto;html=1;exitX=1;exitY=0.5;exitDx=0;exitDy=0;entryX=1;entryY=0.25;entryDx=0;entryDy=0;" edge="1" parent="1" source="yNUQ4REqKbH_PLqFoBqD-8" target="yNUQ4REqKbH_PLqFoBqD-3">
          <mxGeometry relative="1" as="geometry">
            <Array as="points">
              <mxPoint x="296" y="607"/>
              <mxPoint x="296" y="750"/>
            </Array>
          </mxGeometry>
        </mxCell>
        <mxCell id="yNUQ4REqKbH_PLqFoBqD-8" value="" style="rounded=1;whiteSpace=wrap;html=1;" vertex="1" parent="1">
          <mxGeometry x="178" y="510" width="35" height="193" as="geometry"/>
        </mxCell>
        <mxCell id="yNUQ4REqKbH_PLqFoBqD-16" value="" style="endArrow=none;dashed=1;html=1;" edge="1" parent="1">
          <mxGeometry width="50" height="50" relative="1" as="geometry">
            <mxPoint x="645" y="783" as="sourcePoint"/>
            <mxPoint x="645" y="644" as="targetPoint"/>
          </mxGeometry>
        </mxCell>
        <mxCell id="yNUQ4REqKbH_PLqFoBqD-20" value="" style="endArrow=none;dashed=1;html=1;" edge="1" parent="1">
          <mxGeometry width="50" height="50" relative="1" as="geometry">
            <mxPoint x="731" y="847.9999999999998" as="sourcePoint"/>
            <mxPoint x="731" y="709" as="targetPoint"/>
          </mxGeometry>
        </mxCell>
        <mxCell id="yNUQ4REqKbH_PLqFoBqD-21" value="" style="endArrow=none;dashed=1;html=1;" edge="1" parent="1">
          <mxGeometry width="50" height="50" relative="1" as="geometry">
            <mxPoint x="730" y="849" as="sourcePoint"/>
            <mxPoint x="644" y="782" as="targetPoint"/>
          </mxGeometry>
        </mxCell>
        <mxCell id="yNUQ4REqKbH_PLqFoBqD-22" value="" style="endArrow=none;dashed=1;html=1;" edge="1" parent="1">
          <mxGeometry width="50" height="50" relative="1" as="geometry">
            <mxPoint x="733" y="713" as="sourcePoint"/>
            <mxPoint x="647" y="646" as="targetPoint"/>
          </mxGeometry>
        </mxCell>
      </root>
    </mxGraphModel>
  </diagram>
</mxfile>
